<?xml version="1.0" encoding="UTF-8" standalone="no"?>
<!-- Created with Inkscape (http://www.inkscape.org/) -->

<svg
   xmlns:dc="http://purl.org/dc/elements/1.1/"
   xmlns:cc="http://creativecommons.org/ns#"
   xmlns:rdf="http://www.w3.org/1999/02/22-rdf-syntax-ns#"
   xmlns:svg="http://www.w3.org/2000/svg"
   xmlns="http://www.w3.org/2000/svg"
   xmlns:sodipodi="http://sodipodi.sourceforge.net/DTD/sodipodi-0.dtd"
   xmlns:inkscape="http://www.inkscape.org/namespaces/inkscape"
   width="8.4666595mm"
   height="8.46667mm"
   viewBox="0 0 8.4666596 8.46667"
   version="1.1"
   id="svg107"
   inkscape:version="0.92.4 (5da689c313, 2019-01-14)"
   sodipodi:docname="favicon.svg">
  <defs
     id="defs101" />
  <sodipodi:namedview
     id="base"
     pagecolor="#ffffff"
     bordercolor="#666666"
     borderopacity="1.0"
     inkscape:pageopacity="0.0"
     inkscape:pageshadow="2"
     inkscape:zoom="0.35"
     inkscape:cx="400"
     inkscape:cy="560"
     inkscape:document-units="mm"
     inkscape:current-layer="layer1"
     showgrid="false"
     fit-margin-top="0"
     fit-margin-left="0"
     fit-margin-right="0"
     fit-margin-bottom="0"
     inkscape:pagecheckerboard="true" />
  <metadata
     id="metadata104">
    <rdf:RDF>
      <cc:Work
         rdf:about="">
        <dc:format>image/svg+xml</dc:format>
        <dc:type
           rdf:resource="http://purl.org/dc/dcmitype/StillImage" />
        <dc:title />
      </cc:Work>
    </rdf:RDF>
  </metadata>
  <g
     inkscape:label="Layer 1"
     inkscape:groupmode="layer"
     id="layer1"
     transform="translate(154.77787,-105.21325)">
    <path
       style="opacity:1;fill:#00aeef;fill-opacity:1;stroke:none;stroke-width:2.68798733;stroke-linecap:butt;stroke-linejoin:bevel;stroke-miterlimit:4;stroke-dasharray:none;stroke-opacity:1;paint-order:fill markers stroke"
       d="m -153.15221,105.21325 c -0.90058,0 -1.62566,0.72499 -1.62566,1.62557 v 5.21544 c 0,0.90058 0.72508,1.62566 1.62566,1.62566 h 5.21544 c 0.90058,0 1.62556,-0.72508 1.62556,-1.62566 v -5.21544 c 0,-0.90058 -0.72498,-1.62557 -1.62556,-1.62557 z m 2.13164,2.06109 c 0.0269,8.6e-4 0.0542,0.003 0.082,0.007 0.25011,0.0339 0.42406,0.17027 0.54071,0.39079 0.17313,0.32741 0.35022,0.65262 0.52553,0.97891 0.0838,0.156 0.16621,0.31275 0.25123,0.46802 0.0358,0.0654 0.0432,0.0654 0.0859,0.008 0.19488,-0.26132 0.38661,-0.52502 0.58479,-0.7839 0.0716,-0.0935 0.13382,-0.19477 0.21771,-0.27873 0.23232,-0.23265 0.5479,-0.28203 0.83492,-0.12372 0.23449,0.12937 0.36017,0.32877 0.3605,0.60063 3.6e-4,0.39767 1e-4,0.79531 1e-4,1.19292 0,0.39757 0.003,0.79525 -9.3e-4,1.19283 -0.003,0.28589 -0.14226,0.49358 -0.39421,0.61887 -0.23285,0.11579 -0.66518,0.108 -0.89354,-0.12233 -0.0942,-0.095 -0.15114,-0.21147 -0.21336,-0.32523 -0.14538,-0.26599 -0.28759,-0.53371 -0.4306,-0.80102 -0.0461,-0.0861 -0.0905,-0.17313 -0.13595,-0.25966 -0.0352,-0.0669 -0.0359,-0.0674 -0.0936,-0.0204 -0.19106,0.15586 -0.40923,0.19988 -0.64313,0.13622 -0.18599,-0.0506 -0.33002,-0.16824 -0.42163,-0.3394 -0.0998,-0.18631 -0.38388,-0.17234 -0.4857,9.3e-4 -0.23317,0.39662 -0.47565,0.7877 -0.71463,1.18088 -0.0687,0.11303 -0.13278,0.22922 -0.20863,0.33717 -0.12674,0.18032 -0.31038,0.26501 -0.52608,0.28004 -0.10967,0.008 -0.2206,0.008 -0.32828,-0.0213 -0.21064,-0.0569 -0.36326,-0.18379 -0.45737,-0.38144 -0.12456,-0.26157 -0.0668,-0.49957 0.0812,-0.73314 0.22111,-0.34897 0.43456,-0.70281 0.65212,-1.05402 0.13181,-0.2128 0.26598,-0.42414 0.39773,-0.63702 0.17458,-0.28207 0.34433,-0.56714 0.52293,-0.84658 0.10156,-0.15896 0.17904,-0.33532 0.31652,-0.4695 0.14025,-0.1369 0.30547,-0.20185 0.49367,-0.19576 z m -0.0143,0.42208 c -0.1003,9.4e-4 -0.17942,0.0451 -0.23605,0.13585 -0.19718,0.31602 -0.39456,0.63199 -0.59062,0.94873 -0.26784,0.43266 -0.53456,0.86601 -0.80167,1.29914 -0.14321,0.23218 -0.28713,0.46393 -0.42922,0.69684 -0.10268,0.16832 0.0166,0.4214 0.23299,0.41079 0.0447,-0.002 0.0897,-0.001 0.13455,-1.9e-4 0.10637,0.003 0.18178,-0.047 0.23549,-0.13575 0.0938,-0.15501 0.18848,-0.3095 0.28226,-0.4645 0.17491,-0.28906 0.3507,-0.57768 0.52377,-0.86779 0.0861,-0.14427 0.17153,-0.28753 0.32522,-0.37209 0.33737,-0.18552 0.75854,-0.0875 0.95725,0.25522 0.0567,0.0977 0.1361,0.15429 0.26132,0.15363 0.0941,0.003 0.16469,-0.0509 0.22901,-0.12603 0.0424,-0.0496 0.0395,-0.0914 0.0116,-0.14317 -0.10927,-0.20239 -0.21689,-0.40568 -0.3255,-0.60841 -0.18157,-0.33908 -0.36292,-0.67816 -0.54535,-1.01678 -0.0475,-0.0882 -0.11453,-0.15193 -0.22076,-0.16326 -0.0152,-0.002 -0.0299,-0.002 -0.0443,-0.002 z m 2.81469,0.57933 c -0.0875,-0.003 -0.18475,0.0342 -0.26355,0.14261 -0.27311,0.37566 -0.55445,0.74544 -0.83501,1.11569 -0.0354,0.0467 -0.0371,0.085 -0.0104,0.13252 0.0469,0.0832 0.0927,0.16722 0.1377,0.25151 0.20049,0.375 0.40052,0.75024 0.60054,1.1255 0.0194,0.0365 0.0441,0.0676 0.0783,0.092 0.0477,0.034 0.0974,0.0576 0.15845,0.0523 0.0747,-0.007 0.15281,0.0159 0.22419,-0.0136 0.12324,-0.0511 0.17624,-0.15188 0.1765,-0.28152 7.2e-4,-0.38732 1.9e-4,-0.77457 1.9e-4,-1.1619 0,-0.38732 -1.4e-4,-0.77466 0,-1.16199 0,-0.10446 -0.0348,-0.19142 -0.12594,-0.24929 -0.0394,-0.025 -0.0885,-0.0418 -0.14104,-0.0438 z"
       id="rect43"
       inkscape:connector-curvature="0" />
  </g>
</svg>
