<?xml version="1.0" encoding="UTF-8" standalone="no"?>
<!-- Created with Inkscape (http://www.inkscape.org/) -->

<svg
   xmlns:dc="http://purl.org/dc/elements/1.1/"
   xmlns:cc="http://creativecommons.org/ns#"
   xmlns:rdf="http://www.w3.org/1999/02/22-rdf-syntax-ns#"
   xmlns:svg="http://www.w3.org/2000/svg"
   xmlns="http://www.w3.org/2000/svg"
   xmlns:sodipodi="http://sodipodi.sourceforge.net/DTD/sodipodi-0.dtd"
   xmlns:inkscape="http://www.inkscape.org/namespaces/inkscape"
   width="54.613827mm"
   height="50.949329mm"
   viewBox="0 0 54.613827 50.949329"
   version="1.1"
   id="svg107"
   inkscape:version="0.92.4 (5da689c313, 2019-01-14)"
   sodipodi:docname="logo.svg">
  <defs
     id="defs101" />
  <sodipodi:namedview
     id="base"
     pagecolor="#ffffff"
     bordercolor="#666666"
     borderopacity="1.0"
     inkscape:pageopacity="0.0"
     inkscape:pageshadow="2"
     inkscape:zoom="0.35"
     inkscape:cx="400"
     inkscape:cy="560"
     inkscape:document-units="mm"
     inkscape:current-layer="layer1"
     showgrid="false"
     fit-margin-top="0"
     fit-margin-left="0"
     fit-margin-right="0"
     fit-margin-bottom="0"
     inkscape:pagecheckerboard="true" />
  <metadata
     id="metadata104">
    <rdf:RDF>
      <cc:Work
         rdf:about="">
        <dc:format>image/svg+xml</dc:format>
        <dc:type
           rdf:resource="http://purl.org/dc/dcmitype/StillImage" />
        <dc:title />
      </cc:Work>
    </rdf:RDF>
  </metadata>
  <g
     inkscape:label="Layer 1"
     inkscape:groupmode="layer"
     id="layer1"
     transform="translate(49.322294,-118.67083)">
    <g
       id="g858">
      <g
         transform="matrix(0.38433645,0,0,0.38433645,44.963124,90.065592)"
         id="g48"
         style="fill:#00aeef;fill-opacity:1">
        <path
           style="fill:#00aeef;fill-opacity:1"
           inkscape:connector-curvature="0"
           d="m -217.082,166.158 c 0,-7.886 -4.296,-11.9 -10.774,-11.9 -6.549,0 -11.056,4.084 -11.056,12.393 v 21.336 h -6.408 v -38.588 h 6.408 v 5.493 c 2.535,-4.014 7.183,-6.197 12.394,-6.197 8.942,0 15.773,5.493 15.773,16.547 v 22.744 h -6.337 z"
           id="path38" />
        <path
           style="fill:#00aeef;fill-opacity:1"
           inkscape:connector-curvature="0"
           d="m -183.57,188.621 c -10.985,0 -19.083,-7.746 -19.083,-19.998 0,-12.181 7.816,-19.856 19.083,-19.856 11.196,0 18.519,7.886 18.519,18.449 0,1.408 -0.069,2.534 -0.212,3.873 h -30.842 c 0.493,7.816 5.985,12.111 12.534,12.111 5.774,0 9.435,-2.958 10.844,-7.112 h 6.901 c -1.971,7.04 -8.168,12.533 -17.744,12.533 z m -12.463,-22.745 h 24.364 c 0.07,-7.534 -5.563,-11.689 -12.182,-11.689 -6.268,10e-4 -11.478,4.155 -12.182,11.689 z"
           id="path40" />
        <path
           style="fill:#00aeef;fill-opacity:1"
           inkscape:connector-curvature="0"
           d="m -103.221,154.68 v -5.281 h -10.07 v -4.389 h -6.408 v 4.389 h -16.131 l -3.248,5.281 h 19.379 v 22.744 c 0,7.746 3.872,10.562 10.703,10.562 h 5.775 v -5.422 h -4.718 c -3.943,0 -5.351,-1.338 -5.351,-5.141 V 154.68 Z"
           id="path42" />
        <path
           style="fill:#00aeef;fill-opacity:1"
           inkscape:connector-curvature="0"
           d="m -145.499,173.622 -8.801,14.364 h -6.689 l 12.463,-19.153 -12.463,-19.435 h 7.252 l 9.154,14.294 3.737,-5.912 h 6.282 l -6.99,10.7 12.463,19.505 h -7.252 z"
           id="path44" />
        <path
           style="fill:#00aeef;fill-opacity:1"
           inkscape:connector-curvature="0"
           d="m -148.362,111.757 c 0,6.033 0.04,12.067 -0.014,18.1 -0.038,4.338 -2.159,7.489 -5.982,9.39 -3.533,1.757 -10.093,1.64 -13.558,-1.855 -1.429,-1.441 -2.293,-3.209 -3.237,-4.935 -2.206,-4.036 -4.364,-8.098 -6.534,-12.154 -0.699,-1.307 -1.372,-2.628 -2.062,-3.941 -0.534,-1.015 -0.545,-1.023 -1.421,-0.309 -2.899,2.365 -6.209,3.034 -9.758,2.068 -2.822,-0.768 -5.008,-2.553 -6.398,-5.15 -1.514,-2.827 -5.825,-2.616 -7.37,0.012 -3.538,6.018 -7.216,11.952 -10.842,17.918 -1.042,1.715 -2.016,3.479 -3.167,5.117 -1.923,2.736 -4.709,4.02 -7.982,4.248 -1.664,0.116 -3.347,0.12 -4.981,-0.322 -3.196,-0.863 -5.512,-2.789 -6.94,-5.788 -1.89,-3.969 -1.014,-7.581 1.232,-11.125 3.355,-5.295 6.594,-10.663 9.895,-15.992 2,-3.229 4.036,-6.436 6.035,-9.666 2.649,-4.28 5.225,-8.606 7.935,-12.846 1.541,-2.412 2.717,-5.087 4.803,-7.123 2.432,-2.374 5.358,-3.322 8.735,-2.865 3.795,0.514 6.434,2.583 8.204,5.929 2.627,4.968 5.315,9.903 7.975,14.854 1.271,2.367 2.521,4.745 3.811,7.101 0.543,0.992 0.656,0.992 1.305,0.121 2.957,-3.965 5.866,-7.967 8.873,-11.895 1.086,-1.419 2.03,-2.955 3.303,-4.229 3.525,-3.53 8.314,-4.279 12.669,-1.877 3.558,1.963 5.465,4.988 5.47,9.113 0.006,6.034 0.001,12.068 0.001,18.101 z m -39.487,0.337 c 1.428,0.049 2.498,-0.772 3.474,-1.912 0.643,-0.752 0.599,-1.388 0.176,-2.173 -1.658,-3.071 -3.29,-6.155 -4.938,-9.231 -2.755,-5.145 -5.508,-10.29 -8.276,-15.428 -0.721,-1.338 -1.737,-2.306 -3.349,-2.478 -1.844,-0.197 -3.271,0.454 -4.253,2.028 -2.992,4.795 -5.987,9.589 -8.962,14.395 -4.064,6.565 -8.111,13.141 -12.164,19.713 -2.173,3.523 -4.357,7.039 -6.513,10.573 -1.558,2.554 0.252,6.394 3.535,6.233 0.679,-0.033 1.361,-0.018 2.042,-0.002 1.614,0.039 2.758,-0.714 3.573,-2.061 1.423,-2.352 2.86,-4.696 4.283,-7.048 2.654,-4.386 5.321,-8.765 7.947,-13.167 1.306,-2.189 2.603,-4.362 4.935,-5.645 5.119,-2.815 11.51,-1.328 14.525,3.872 0.86,1.482 2.065,2.341 3.965,2.331 z m 33.174,-0.387 c 0,-5.877 -10e-4,-11.754 0.001,-17.631 0,-1.585 -0.529,-2.905 -1.912,-3.783 -1.596,-1.013 -4.225,-1.132 -6.138,1.5 -4.144,5.7 -8.414,11.31 -12.671,16.928 -0.538,0.709 -0.563,1.291 -0.157,2.012 0.712,1.263 1.406,2.537 2.089,3.816 3.042,5.69 6.078,11.383 9.113,17.077 0.295,0.554 0.67,1.026 1.189,1.395 0.724,0.516 1.478,0.874 2.404,0.794 1.133,-0.099 2.318,0.242 3.401,-0.206 1.87,-0.775 2.674,-2.304 2.678,-4.271 0.011,-5.877 0.004,-11.754 0.003,-17.631 z"
           id="path46" />
      </g>
      <g
         transform="matrix(0.38433645,0,0,0.38433645,44.963124,90.065592)"
         id="g66"
         style="fill:#000000">
        <g
           id="g64"
           style="fill:#000000">
          <path
             style="fill:#000000"
             inkscape:connector-curvature="0"
             d="m -208.136,194.515 h 3.185 l -4.382,12.354 h -3.766 l -4.382,-12.354 h 3.203 l 3.062,9.326 z"
             id="path50" />
          <path
             style="fill:#000000"
             inkscape:connector-curvature="0"
             d="m -196.749,194.515 h 3.009 v 12.354 h -3.009 z"
             id="path52" />
          <path
             style="fill:#000000"
             inkscape:connector-curvature="0"
             d="m -180.137,206.992 c -2.657,0 -4.733,-1.32 -4.821,-3.819 h 3.202 c 0.088,0.95 0.686,1.407 1.532,1.407 0.879,0 1.443,-0.44 1.443,-1.161 0,-2.288 -6.177,-1.056 -6.141,-5.438 0,-2.341 1.918,-3.644 4.505,-3.644 2.693,0 4.505,1.337 4.628,3.696 h -3.255 c -0.053,-0.793 -0.616,-1.267 -1.426,-1.286 -0.721,-0.017 -1.266,0.353 -1.266,1.126 0,2.147 6.106,1.179 6.106,5.315 -0.001,2.078 -1.62,3.804 -4.507,3.804 z"
             id="path54" />
          <path
             style="fill:#000000"
             inkscape:connector-curvature="0"
             d="m -166.885,194.515 h 3.01 v 7.391 c 0,1.46 0.722,2.305 2.147,2.305 1.425,0 2.182,-0.846 2.182,-2.305 v -7.391 h 3.01 v 7.373 c 0,3.414 -2.393,5.104 -5.244,5.104 -2.869,0 -5.104,-1.69 -5.104,-5.104 v -7.373 z"
             id="path56" />
          <path
             style="fill:#000000"
             inkscape:connector-curvature="0"
             d="m -139.783,204.685 h -4.611 l -0.739,2.183 h -3.15 l 4.47,-12.354 h 3.484 l 4.47,12.354 h -3.185 z m -2.305,-6.844 -1.514,4.522 h 3.045 z"
             id="path58" />
          <path
             style="fill:#000000"
             inkscape:connector-curvature="0"
             d="m -124.542,194.515 v 10.031 h 3.941 v 2.322 h -6.951 v -12.354 h 3.01 z"
             id="path60" />
          <path
             style="fill:#000000"
             inkscape:connector-curvature="0"
             d="m -107.735,206.992 c -2.658,0 -4.734,-1.32 -4.822,-3.819 h 3.204 c 0.087,0.95 0.686,1.407 1.531,1.407 0.88,0 1.443,-0.44 1.443,-1.161 0,-2.288 -6.177,-1.056 -6.141,-5.438 0,-2.341 1.918,-3.644 4.505,-3.644 2.693,0 4.505,1.337 4.628,3.696 h -3.255 c -0.053,-0.793 -0.616,-1.267 -1.425,-1.286 -0.722,-0.017 -1.267,0.353 -1.267,1.126 0,2.147 6.107,1.179 6.107,5.315 -0.003,2.078 -1.622,3.804 -4.508,3.804 z"
             id="path62" />
        </g>
      </g>
    </g>
  </g>
</svg>
